<?xml version="1.0" encoding="utf-8"?><!-- Uploaded to: SVG Repo, www.svgrepo.com, Generator: SVG Repo Mixer Tools -->
<svg fill = "#CCCCCC" width="800px" height="800px" viewBox="0 0 100 100" xmlns="http://www.w3.org/2000/svg" xmlns:xlink="http://www.w3.org/1999/xlink" aria-hidden="true" role="img" class="iconify iconify--gis" preserveAspectRatio="xMidYMid meet">
<path d="M2.063 51.733a4.127 4.127 0 0 0-1.51 5.637l18.34 31.768a4.127 4.127 0 0 0 5.638 1.51l73.406-42.38a4.127 4.127 0 0 0 1.51-5.638l-18.34-31.768a4.127 4.127 0 0 0-5.638-1.51zm7.701 5.084l66.258-38.254l14.214 24.62l-4.775 2.757l-5.327-9.229l-3.574 2.064l5.327 9.228l-5.465 3.156l-5.328-9.229l-3.574 2.064l5.328 9.228l-5.459 3.152l-5.328-9.229l-3.574 2.064l5.328 9.228l-5.465 3.156l-7.404-12.823l-3.574 2.063l7.404 12.823l-5.466 3.156l-5.328-9.229l-3.574 2.064l5.328 9.228l-5.459 3.151l-5.327-9.228l-3.574 2.064l5.327 9.228l-5.465 3.155l-5.328-9.228l-3.574 2.064l5.328 9.228l-3.686 2.128z" fill="#CCCCCC"></path></svg>